PathFileType	4	(x/y/z)	S04_P20_T21.trc
DataRate	CameraRate	NumFrames	NumMarkers	Units	OrigDataRate	OrigDataStartFrame	OrigNumFrames
240	240	11	51	mm	240	316	361
Frame#	Time	Sternum			R.Acromium			L.Acromium			Top.Head			R.ASIS			L.ASIS			R.PSIS			L.PSIS			R.Great.Tro			L.Great.Tro			R.Iliac.Crest			L.Iliac.Crest			V.Sacral			R.Thigh.Upper.Post			R.Thigh.Lower.Ant			R.Thigh.Lower.Post			R.Thigh.Upper.Ant			R.Knee.Lat			R.Knee.Med			R.Shank.Upper.Post			R.Shank.Lower.Ant			R.Shank.Lower.Post			R.Shank.Upper.Ant			R.Ankle.Lat			R.Ankle.Med			R.Heel.Upper			R.Heel.Med			R.Heel.Lat			R.Toe.Lat			R.Toe.Med			R.Toe.Tip			L.Thigh.Upper.Post			L.Thigh.Lower.Ant			L.Thigh.Lower.Post			L.Thigh.Upper.Ant			L.Knee.Lat			L.Knee.Med			L.Shank.Upper.Post			L.Shank.Lower.Ant			L.Shank.Lower.Post			L.Shank.Upper.Ant			L.Ankle.Lat			L.Ankle.Med			L.Heel.Upper			L.Heel.Med			L.Heel.Lat			L.Toe.Lat			L.Toe.Med			L.Toe.Tip			Cervical.Spine			Back			
		X1	Y1	Z1	X2	Y2	Z2	X3	Y3	Z3	X4	Y4	Z4	X5	Y5	Z5	X6	Y6	Z6	X7	Y7	Z7	X8	Y8	Z8	X9	Y9	Z9	X10	Y10	Z10	X11	Y11	Z11	X12	Y12	Z12	X13	Y13	Z13	X14	Y14	Z14	X15	Y15	Z15	X16	Y16	Z16	X17	Y17	Z17	X18	Y18	Z18	X19	Y19	Z19	X20	Y20	Z20	X21	Y21	Z21	X22	Y22	Z22	X23	Y23	Z23	X24	Y24	Z24	X25	Y25	Z25	X26	Y26	Z26	X27	Y27	Z27	X28	Y28	Z28	X29	Y29	Z29	X30	Y30	Z30	X31	Y31	Z31	X32	Y32	Z32	X33	Y33	Z33	X34	Y34	Z34	X35	Y35	Z35	X36	Y36	Z36	X37	Y37	Z37	X38	Y38	Z38	X39	Y39	Z39	X40	Y40	Z40	X41	Y41	Z41	X42	Y42	Z42	X43	Y43	Z43	X44	Y44	Z44	X45	Y45	Z45	X46	Y46	Z46	X47	Y47	Z47	X48	Y48	Z48	X49	Y49	Z49	X50	Y50	Z50	X51	Y51	Z51	

316	1.3125	420.27	1280.2	260.53	281.81	1512	422.47	307.71	1495.9	72.925	298.73	1833.8	232.93	371.44	1002.7	383.45	373.12	1013.8	136.21	160.25	1032.6	286.72	169.55	1038.7	206.29	291.58	922.91	450.9	251.58	930.85	72.505	282.91	1092.6	426.44	284.88	1099.6	90.84	144.46	993.71	244.54	372.19	672.44	446.08	470.06	619.63	412.11	402.37	587.41	431.72	441.76	725.54	431.17	446.19	533.22	424.22	429.93	519.56	289.28	415.1	300.73	421.55	501.09	238.36	390.69	430.8	232.82	408.62	482.02	306.18	411.9	468.63	120.47	394.12	499.28	138.9	308.35	421.34	75.277	328.92	442.03	49.263	300.88	427.87	43.704	363.18	585.78	71.003	437.15	636.8	85.324	327.8	685.52	116.77	383.55	204.7	704.47	90.313	271.59	598.33	100.03	200.98	615.09	104.26	269.83	687.23	82.883	221.78	513.7	111.62	224.28	504.27	235.89	107.61	347.15	116.29	164.64	252.02	118.77	102.6	269.69	124.96	169.55	328.14	109.53	121.75	105.33	141.07	124.21	115.49	234.53	41.628	75.453	185.83	46.997	49.815	219.48	45.704	48.308	157.55	229.8	42.036	120.29	259.99	45.208	237.27	317.81	53.529	188.13	244.15	1555.8	247.36	162.86	1301.9	220.05
317	1.3167	425.8	1279.5	260.89	287.09	1511.1	422.75	313.38	1495.2	73.252	304.16	1833	233.24	377.09	1002	383.61	378.42	1013	136.37	165.78	1031.9	287.11	175.01	1038	206.66	297.15	922.15	451.19	256.63	930.3	72.748	288.61	1091.8	426.7	290.3	1098.9	91.091	149.97	993.03	244.92	376.65	671.33	446.45	474.54	618.45	412.64	406.76	586.29	432.02	446.28	724.37	431.68	451.14	532.54	424.6	434.83	518.41	289.57	425.08	299.35	421.99	512.39	238.9	391.08	442.28	231.78	409.06	491.8	306.31	412.29	482.77	120.18	394.6	512.77	139.3	308.72	436.31	73.806	329.57	457.54	48.27	301.48	443.65	42.428	363.82	601.2	73.344	437.27	651.57	88.81	327.8	699.72	121.4	383.36	208.49	704.49	90.466	274.7	597.94	100.31	204.19	615.07	104.48	273.44	686.84	83.203	224.25	513.5	111.74	226.76	504.08	236.02	109.13	347.57	116.43	165.65	252.12	118.84	103.73	270.14	125.07	170.95	328.21	109.62	121.96	105.53	141.19	124.48	115.74	234.65	41.723	75.671	186	47.073	49.993	219.59	45.763	48.551	157.69	229.84	42.023	120.33	260.09	45.065	237.29	317.94	53.236	188.14	249.63	1555	247.59	168.39	1301.2	220.14
318	1.3208	431.34	1278.7	261.26	292.38	1510.3	423.05	319.04	1494.4	73.601	309.59	1832.2	233.57	382.74	1001.2	383.77	383.73	1012.2	136.53	171.33	1031.2	287.51	180.49	1037.3	207.05	302.75	921.36	451.48	261.71	929.73	72.994	294.29	1091	426.98	295.74	1098.2	91.351	155.5	992.32	245.32	381.15	670.2	446.83	479.06	617.27	413.16	411.19	585.16	432.31	450.84	723.2	432.21	456.1	531.83	424.97	439.75	517.26	289.84	434.87	298.07	422.41	523.39	239.47	391.41	453.5	230.84	409.45	501.38	306.46	412.62	496.5	120	395	525.84	139.78	309.02	450.86	72.486	330.15	472.59	47.42	302.03	458.99	41.317	364.4	616.14	75.743	437.3	665.83	92.3	327.7	713.41	125.99	383.06	212.36	704.47	90.625	277.91	597.52	100.6	207.49	615.02	104.71	277.14	686.43	83.521	226.83	513.29	111.87	229.36	503.86	236.17	110.73	348	116.58	166.71	252.21	118.91	104.93	270.6	125.19	172.44	328.28	109.72	122.18	105.74	141.31	124.75	116.02	234.78	41.826	75.919	186.16	47.153	50.202	219.7	45.823	48.821	157.83	229.88	42.008	120.38	260.21	44.923	237.32	318.07	52.932	188.15	255.1	1554.2	247.84	173.93	1300.4	220.25
319	1.325	436.89	1277.8	261.65	297.68	1509.4	423.37	324.69	1493.7	73.97	315.01	1831.4	233.92	388.41	1000.5	383.94	389.05	1011.4	136.69	176.89	1030.4	287.93	185.97	1036.6	207.44	308.37	920.55	451.77	266.81	929.15	73.243	299.97	1090.1	427.27	301.18	1097.5	91.618	161.05	991.59	245.74	385.72	669.07	447.22	483.64	616.09	413.65	415.68	584.03	432.6	455.47	722.02	432.75	461.1	531.12	425.32	444.69	516.12	290.08	444.47	296.87	422.78	534.09	240.04	391.67	464.43	229.99	409.8	510.74	306.6	412.89	509.8	119.92	395.34	538.46	140.3	309.24	464.94	71.301	330.68	487.14	46.691	302.5	473.84	40.349	364.92	630.56	78.167	437.24	679.54	95.752	327.5	726.57	130.51	382.66	216.31	704.42	90.792	281.22	597.1	100.89	210.91	614.94	104.94	280.93	686	83.836	229.54	513.05	112	232.09	503.62	236.33	112.42	348.44	116.72	167.84	252.3	119	106.19	271.07	125.3	174	328.35	109.83	122.42	105.98	141.44	125.04	116.31	234.92	41.938	76.204	186.33	47.238	50.45	219.82	45.886	49.125	157.97	229.92	41.991	120.43	260.33	44.782	237.34	318.21	52.619	188.15	260.57	1553.4	248.11	179.47	1299.5	220.39
320	1.3292	442.44	1277	262.04	302.98	1508.5	423.71	330.33	1492.9	74.36	320.42	1830.6	234.28	394.09	999.68	384.12	394.4	1010.5	136.86	182.46	1029.7	288.36	191.47	1035.9	207.85	314.02	919.73	452.07	271.93	928.55	73.496	305.63	1089.2	427.57	306.64	1096.7	91.893	166.63	990.83	246.17	390.37	667.94	447.61	488.3	614.93	414.12	420.26	582.9	432.87	460.17	720.86	433.28	466.15	530.4	425.66	449.68	515.01	290.31	453.85	295.75	423.12	544.46	240.59	391.86	475.06	229.21	410.09	519.87	306.74	413.09	522.64	119.9	395.6	550.6	140.84	309.39	478.51	70.234	331.14	501.15	46.06	302.92	488.16	39.508	365.38	644.43	80.579	437.09	692.69	99.123	327.2	739.18	134.91	382.15	220.35	704.33	90.968	284.65	596.65	101.19	214.43	614.83	105.17	284.82	685.55	84.149	232.38	512.79	112.15	234.95	503.36	236.52	114.2	348.89	116.87	169.04	252.4	119.09	107.52	271.56	125.42	175.66	328.41	109.94	122.68	106.23	141.56	125.34	116.64	235.08	42.063	76.533	186.5	47.329	50.745	219.94	45.954	49.469	158.12	229.96	41.971	120.49	260.46	44.644	237.36	318.36	52.296	188.16	266.04	1552.6	248.41	185.01	1298.7	220.55
321	1.3333	448	1276.2	262.46	308.28	1507.6	424.07	335.96	1492.1	74.771	325.83	1829.8	234.66	399.78	998.9	384.31	399.76	1009.7	137.03	188.04	1028.9	288.81	196.97	1035.1	208.27	319.7	918.91	452.36	277.08	927.93	73.753	311.29	1088.4	427.88	312.1	1096	92.177	172.22	990.06	246.62	395.12	666.83	447.98	493.05	613.79	414.56	424.95	581.8	433.12	464.97	719.71	433.81	471.26	529.67	425.96	454.71	513.92	290.51	463.01	294.7	423.41	554.5	241.12	391.97	485.36	228.5	410.33	528.77	306.85	413.23	535	119.93	395.77	562.25	141.38	309.47	491.55	69.268	331.54	514.58	45.506	303.27	501.91	38.772	365.78	657.73	82.942	436.85	705.24	102.37	326.81	751.22	139.14	381.54	224.47	704.21	91.155	288.2	596.19	101.48	218.08	614.69	105.41	288.81	685.08	84.461	235.37	512.51	112.31	237.96	503.07	236.71	116.09	349.36	117.02	170.3	252.49	119.18	108.93	272.07	125.55	177.41	328.47	110.06	122.95	106.52	141.69	125.65	116.99	235.24	42.201	76.912	186.67	47.427	51.094	220.06	46.027	49.861	158.26	230.01	41.948	120.55	260.59	44.509	237.38	318.51	51.963	188.17	271.5	1551.8	248.73	190.55	1297.9	220.74
322	1.3375	453.56	1275.4	262.88	313.59	1506.7	424.46	341.58	1491.4	75.203	331.23	1829	235.06	405.48	998.11	384.5	405.15	1008.9	137.2	193.64	1028.1	289.27	202.49	1034.4	208.7	325.41	918.08	452.66	282.25	927.3	74.013	316.95	1087.5	428.2	317.57	1095.2	92.468	177.83	989.27	247.09	399.97	665.75	448.35	497.91	612.69	414.95	429.75	580.72	433.36	469.88	718.6	434.33	476.45	528.96	426.23	459.79	512.88	290.68	471.93	293.71	423.65	564.18	241.59	392.01	495.32	227.85	410.52	537.43	306.92	413.3	546.83	119.99	395.87	573.37	141.89	309.47	504.01	68.389	331.87	527.4	45.01	303.55	515.05	38.124	366.12	670.41	85.218	436.52	717.18	105.44	326.31	762.67	143.15	380.81	228.69	704.04	91.353	291.88	595.71	101.77	221.84	614.51	105.65	292.9	684.59	84.771	238.5	512.2	112.47	241.13	502.75	236.92	118.09	349.84	117.17	171.65	252.59	119.28	110.43	272.6	125.67	179.25	328.52	110.19	123.25	106.83	141.81	125.99	117.38	235.41	42.358	77.351	186.84	47.533	51.506	220.19	46.108	50.308	158.4	230.06	41.922	120.61	260.73	44.376	237.4	318.67	51.622	188.17	276.96	1550.9	249.08	196.09	1297	220.95
323	1.3417	459.12	1274.5	263.32	318.9	1505.8	424.87	347.19	1490.6	75.656	336.63	1828.2	235.48	411.2	997.32	384.71	410.56	1008	137.39	199.25	1027.3	289.75	208.02	1033.6	209.15	331.15	917.26	452.97	287.45	926.67	74.278	322.6	1086.6	428.53	323.06	1094.4	92.769	183.46	988.46	247.58	404.95	664.7	448.69	502.89	611.64	415.3	434.68	579.68	433.56	474.91	717.53	434.84	481.73	528.25	426.46	464.94	511.88	290.83	480.6	292.79	423.85	573.51	241.99	391.96	504.93	227.23	410.64	545.84	306.95	413.29	558.13	120.05	395.89	583.95	142.36	309.39	515.86	67.582	332.12	539.57	44.553	303.76	527.55	37.547	366.38	682.47	87.369	436.09	728.49	108.31	325.72	773.53	146.89	379.97	233	703.84	91.563	295.68	595.21	102.06	225.74	614.3	105.91	297.11	684.09	85.08	241.79	511.87	112.65	244.45	502.39	237.14	120.2	350.33	117.31	173.07	252.69	119.38	112.01	273.16	125.79	181.2	328.57	110.32	123.58	107.17	141.93	126.35	117.81	235.58	42.535	77.856	187	47.65	51.99	220.31	46.198	50.818	158.54	230.12	41.892	120.67	260.88	44.249	237.42	318.84	51.272	188.18	282.42	1550.1	249.45	201.63	1296.1	221.18
324	1.3458	464.68	1273.7	263.78	324.21	1504.8	425.31	352.79	1489.8	76.13	342.03	1827.3	235.91	416.94	996.55	384.92	416	1007.2	137.58	204.87	1026.5	290.25	213.56	1032.8	209.6	336.94	916.44	453.27	292.69	926.02	74.547	328.26	1085.6	428.87	328.55	1093.6	93.079	189.11	987.64	248.08	410.07	663.69	449.01	508	610.63	415.59	439.74	578.68	433.73	480.07	716.5	435.32	487.11	527.56	426.65	470.17	510.94	290.95	489.01	291.92	424	582.47	242.31	391.84	514.16	226.65	410.71	554.01	306.93	413.22	568.87	120.09	395.82	593.97	142.75	309.22	527.08	66.835	332.31	551.05	44.119	303.9	539.37	37.024	366.58	693.89	89.356	435.57	739.15	110.91	325.02	783.78	150.32	379.02	237.42	703.59	91.786	299.63	594.69	102.35	229.77	614.05	106.17	301.43	683.58	85.39	245.24	511.5	112.83	247.93	502.01	237.37	122.42	350.84	117.45	174.57	252.8	119.49	113.68	273.74	125.91	183.26	328.62	110.45	123.94	107.56	142.04	126.73	118.27	235.75	42.736	78.436	187.15	47.778	52.553	220.42	46.301	51.397	158.66	230.18	41.857	120.73	261.04	44.126	237.43	319.02	50.917	188.19	287.87	1549.2	249.84	207.18	1295.3	221.44
325	1.35	470.26	1272.9	264.26	329.53	1503.9	425.76	358.39	1489	76.623	347.43	1826.5	236.35	422.7	995.78	385.15	421.47	1006.4	137.78	210.51	1025.7	290.76	219.11	1032.1	210.07	342.76	915.64	453.58	297.96	925.37	74.822	333.93	1084.7	429.23	334.06	1092.9	93.399	194.79	986.81	248.6	415.32	662.73	449.29	513.24	609.69	415.84	444.96	577.73	433.87	485.37	715.52	435.77	492.59	526.88	426.79	475.47	510.05	291.05	497.16	291.1	424.09	591.06	242.53	391.63	523.01	226.08	410.72	561.93	306.83	413.07	579.03	120.1	395.68	603.42	143.05	308.98	537.64	66.139	332.42	561.83	43.696	303.96	550.47	36.543	366.7	704.63	91.143	434.95	749.15	113.23	324.22	793.43	153.4	377.97	241.94	703.32	92.022	303.71	594.16	102.64	233.94	613.77	106.43	305.87	683.05	85.701	248.86	511.12	113.02	251.6	501.59	237.61	124.77	351.38	117.59	176.15	252.92	119.58	115.45	274.34	126.02	185.42	328.68	110.59	124.33	107.99	142.15	127.15	118.78	235.91	42.964	79.099	187.28	47.922	53.206	220.53	46.418	52.054	158.78	230.25	41.818	120.79	261.2	44.011	237.44	319.2	50.556	188.19	293.32	1548.4	250.26	212.73	1294.4	221.73
326	1.3542	475.83	1272.1	264.75	334.84	1503	426.24	363.97	1488.2	77.135	352.82	1825.7	236.81	428.48	995.03	385.39	426.96	1005.6	138	216.16	1024.9	291.29	224.68	1031.3	210.55	348.63	914.85	453.9	303.27	924.71	75.102	339.61	1083.8	429.61	339.58	1092.1	93.73	200.48	985.97	249.14	420.72	661.81	449.54	518.63	608.8	416.02	450.33	576.83	433.97	490.81	714.6	436.2	498.19	526.22	426.87	480.86	509.21	291.11	505.05	290.32	424.13	599.27	242.63	391.34	531.48	225.52	410.67	569.59	306.67	412.85	588.6	120.06	395.47	612.3	143.24	308.66	547.52	65.488	332.46	571.88	43.271	303.96	560.85	36.091	366.76	714.71	92.697	434.25	758.49	115.21	323.32	802.48	156.07	376.81	246.58	703	92.272	307.95	593.62	102.92	238.25	613.45	106.7	310.43	682.5	86.013	252.65	510.71	113.22	255.44	501.14	237.86	127.25	351.93	117.73	177.83	253.05	119.68	117.32	274.99	126.13	187.71	328.74	110.72	124.76	108.46	142.24	127.61	119.35	236.06	43.224	79.855	187.4	48.083	53.957	220.62	46.554	52.797	158.89	230.32	41.775	120.85	261.38	43.903	237.44	319.39	50.191	188.2	298.76	1547.5	250.71	218.29	1293.5	222.04
